<?xml version="1.0" encoding="UTF-8" standalone="no"?>
<!-- Created with Inkscape (http://www.inkscape.org/) -->

<svg
   xmlns:dc="http://purl.org/dc/elements/1.1/"
   xmlns:cc="http://creativecommons.org/ns#"
   xmlns:rdf="http://www.w3.org/1999/02/22-rdf-syntax-ns#"
   xmlns:svg="http://www.w3.org/2000/svg"
   xmlns="http://www.w3.org/2000/svg"
   xmlns:sodipodi="http://sodipodi.sourceforge.net/DTD/sodipodi-0.dtd"
   xmlns:inkscape="http://www.inkscape.org/namespaces/inkscape"
   version="1.1"
   width="103.67203"
   height="43.104"
   id="svg2"
   inkscape:version="0.91 r13725"
   sodipodi:docname="mrdoob.svg">
  <sodipodi:namedview
     pagecolor="#ffffff"
     bordercolor="#666666"
     borderopacity="1"
     objecttolerance="10"
     gridtolerance="10"
     guidetolerance="10"
     inkscape:pageopacity="0"
     inkscape:pageshadow="2"
     inkscape:window-width="1855"
     inkscape:window-height="1176"
     id="namedview8"
     showgrid="false"
     fit-margin-top="15"
     fit-margin-left="15"
     fit-margin-right="15"
     fit-margin-bottom="15"
     inkscape:zoom="2.8380952"
     inkscape:cx="52.5"
     inkscape:cy="14.00002"
     inkscape:window-x="1425"
     inkscape:window-y="24"
     inkscape:window-maximized="1"
     inkscape:current-layer="layer1" />
  <defs
     id="defs4" />
  <g
     transform="translate(0,-993.2582)"
     id="layer1">
    <path
       d="m 80.752031,1008.2582 -3.438,0 0,2.052 1.242,0 0,8.748 -1.242,0 0,2.052 3.438,0 0,-1.44 c 0.737999,1.044 1.944001,1.584 3.222,1.584 1.259999,0 2.556001,-0.63 3.402,-1.566 0.845999,-0.918 1.296,-2.142 1.296,-3.384 0,-2.718 -2.232003,-4.95 -4.95,-4.95 -1.223999,0 -2.286001,0.522 -2.97,1.53 l 0,-4.626 m 2.826,5.094 c 1.601998,0 2.916,1.314 2.916,2.916 0,1.566 -1.242002,2.952 -2.862,2.952 -1.655998,0 -2.97,-1.296 -2.97,-2.97 0,-1.602 1.314001,-2.898 2.916,-2.898 m -11.773406,8.01 c 2.825997,0 5.058,-2.304 5.058,-5.112 0,-2.736 -2.232003,-5.04 -5.004,-5.04 -2.789998,0 -5.076,2.25 -5.076,5.058 0,2.772 2.214002,5.094 5.022,5.094 m 0,-2.16 c -1.637999,0 -2.862,-1.368 -2.862,-2.952 0,-1.602 1.332001,-2.88 2.916,-2.88 1.601998,0 2.844,1.368 2.844,2.934 0,1.602 -1.296002,2.898 -2.898,2.898 m -10.441407,2.16 c 2.825998,0 5.058,-2.304 5.058,-5.112 0,-2.736 -2.232002,-5.04 -5.004,-5.04 -2.789997,0 -5.076,2.25 -5.076,5.058 0,2.772 2.214003,5.094 5.022,5.094 m 0,-2.16 c -1.637998,0 -2.862,-1.368 -2.862,-2.952 0,-1.602 1.332002,-2.88 2.916,-2.88 1.601999,0 2.844,1.368 2.844,2.934 0,1.602 -1.296001,2.898 -2.898,2.898 m -8.858812,1.908 3.438,0 0,-2.052 -1.242,0 0,-10.8 -3.456,0 0,2.052 1.26,0 0,2.592 c -0.755999,-0.99 -1.944001,-1.566 -3.168,-1.566 -2.717997,0 -4.878,2.286 -4.878,4.968 0,2.664 2.214003,4.95 4.896,4.95 1.277999,0 2.430001,-0.504 3.15,-1.584 l 0,1.44 m -2.862,-1.872 c -1.601999,0 -2.898,-1.314 -2.898,-2.898 0,-1.638 1.296002,-2.952 2.934,-2.952 1.565998,0 2.88,1.296 2.88,2.88 0,1.62 -1.278002,2.97 -2.916,2.97 m -6.980063,-0.666 -2.268,0 0,2.538 2.268,0 0,-2.538 m -7.107468,-7.074 -3.276,0 0,2.052 1.242,0 0,5.508 -1.242,0 0,2.052 4.68,0 0,-2.052 -1.242,0 0,-2.43 c 0,-0.9 0.108,-1.674 0.828,-2.286 0.539999,-0.486 1.188,-0.666 1.89,-0.702 l 0,-2.25 c -1.241999,0.054 -2.322001,0.612 -2.88,1.746 l 0,-1.638 m -5.326875,-1.188 1.404,0 0,-2.052 -4.824,0 -3.492,9.072 -3.492,-9.072 -4.824,0 0,2.052 1.404,0 0,8.748 -1.404,0 0,2.052 5.346,0 0,-2.052 -1.494,0 0,-7.47 3.654,9.522 1.728,0 3.546,-9.522 0,7.47 -1.386,0 0,2.052 5.238,0 0,-2.052 -1.404,0 0,-8.748"
       id="path3055"
       style="fill:#fb003f"
       inkscape:connector-curvature="0" />
  </g>
  <metadata
     id="metadata3205">
    <rdf:RDF>
      <cc:Work
         rdf:about="">
        <dc:title></dc:title>
        <dc:format>image/svg+xml</dc:format>
        <dc:type
           rdf:resource="http://purl.org/dc/dcmitype/StillImage" />
      </cc:Work>
    </rdf:RDF>
  </metadata>
</svg>
