<?xml version="1.0" encoding="UTF-8" standalone="no"?>
<!-- Created with Inkscape (http://www.inkscape.org/) -->

<svg
   xmlns:dc="http://purl.org/dc/elements/1.1/"
   xmlns:cc="http://creativecommons.org/ns#"
   xmlns:rdf="http://www.w3.org/1999/02/22-rdf-syntax-ns#"
   xmlns:svg="http://www.w3.org/2000/svg"
   xmlns="http://www.w3.org/2000/svg"
   xmlns:sodipodi="http://sodipodi.sourceforge.net/DTD/sodipodi-0.dtd"
   xmlns:inkscape="http://www.inkscape.org/namespaces/inkscape"
   width="284.71832"
   height="63.999977"
   viewBox="0 0 284.71833 63.999978"
   id="svg2"
   version="1.1"
   inkscape:version="0.91 r13725"
   sodipodi:docname="logo-plain.svg">
  <defs
     id="defs4" />
  <sodipodi:namedview
     id="base"
     pagecolor="#ffffff"
     bordercolor="#666666"
     borderopacity="1.0"
     inkscape:pageopacity="0.0"
     inkscape:pageshadow="2"
     inkscape:zoom="1.4142136"
     inkscape:cx="230.18061"
     inkscape:cy="-79.322675"
     inkscape:document-units="px"
     inkscape:current-layer="layer1"
     showgrid="true"
     units="px"
     inkscape:showpageshadow="false"
     showborder="false"
     fit-margin-top="0"
     fit-margin-left="0"
     fit-margin-right="0"
     fit-margin-bottom="0"
     inkscape:window-width="1855"
     inkscape:window-height="1176"
     inkscape:window-x="1425"
     inkscape:window-y="24"
     inkscape:window-maximized="1">
    <inkscape:grid
       type="xygrid"
       id="grid4168"
       spacingx="4.0000001"
       spacingy="4.0000001"
       empspacing="2"
       visible="false"
       originx="128.39554"
       originy="9.8560397e-07" />
  </sodipodi:namedview>
  <metadata
     id="metadata7">
    <rdf:RDF>
      <cc:Work
         rdf:about="">
        <dc:format>image/svg+xml</dc:format>
        <dc:type
           rdf:resource="http://purl.org/dc/dcmitype/StillImage" />
        <dc:title></dc:title>
      </cc:Work>
    </rdf:RDF>
  </metadata>
  <g
     inkscape:label="Layer 1"
     inkscape:groupmode="layer"
     id="layer1"
     transform="translate(128.39553,-988.36218)">
    <rect
       style="opacity:1;fill:#3284ff;fill-opacity:1;stroke:none;stroke-width:2;stroke-linecap:round;stroke-linejoin:round;stroke-miterlimit:4;stroke-dasharray:none;stroke-opacity:1"
       id="rect4164"
       width="64"
       height="63.999977"
       x="0"
       y="988.36218"
       ry="15.999977" />
    <g
       style="font-style:normal;font-variant:normal;font-weight:600;font-stretch:normal;font-size:33.60041046px;line-height:125%;font-family:FreeSans;-inkscape-font-specification:'FreeSans, Semi-Bold';text-align:start;letter-spacing:0px;word-spacing:0px;writing-mode:lr-tb;text-anchor:start;opacity:0.94100001;fill:#000000;fill-opacity:1;stroke:none;stroke-width:1px;stroke-linecap:butt;stroke-linejoin:miter;stroke-opacity:1"
       id="text4136">
      <path
         d="m -104.30403,1033.0619 -4.53606,0 -4.09925,-19.1186 -3.99845,19.1186 -4.53605,0 -6.92169,-24.4947 5.34247,0 3.79684,18.3458 3.79685,-18.3458 4.97286,0 3.96485,18.3794 3.66244,-18.3794 5.34247,0 -6.78728,24.4947 z"
         style=""
         id="path4281" />
      <path
         d="m -87.101149,1014.6153 q 1.176014,0 2.284828,0.2688 1.108813,0.2688 2.251227,0.9744 1.176015,0.7056 2.016025,1.8144 0.87361,1.0752 1.411217,2.8896 0.537607,1.7809 0.537607,4.0993 0,0.4032 -0.0336,0.8064 l -12.163348,0 q 0.0336,1.0416 0.168002,1.8144 0.168002,0.7392 0.537606,1.4784 0.403205,0.7056 1.142414,1.1089 0.77281,0.3696 1.915224,0.3696 2.688032,0 3.595244,-2.2849 l 4.636856,0 q -0.772809,2.6881 -3.057637,4.3009 -2.284828,1.5792 -5.342465,1.5792 -3.864048,0 -6.081675,-2.4864 -2.217627,-2.5201 -2.217627,-6.8881 0,-4.5697 2.251228,-7.1905 2.251227,-2.6544 6.148875,-2.6544 z m 3.595244,7.7281 q -0.168002,-1.9825 -1.108814,-3.0577 -0.907211,-1.0752 -2.553631,-1.0752 -3.091238,0 -3.561644,4.1329 l 7.224089,0 z"
         style=""
         id="path4283" />
      <path
         d="m -65.328607,1014.6153 q 3.25924,0 5.443267,2.7216 2.184026,2.688 2.184026,6.8881 0,4.0992 -2.184026,6.8545 -2.184027,2.7552 -5.443267,2.7552 -3.32644,0 -5.006461,-2.6208 l 0,1.848 -4.704057,0 0,-24.4947 4.704057,0 0,8.7025 q 1.680021,-2.6544 5.006461,-2.6544 z m 1.814422,5.544 q -1.108813,-1.6128 -2.856035,-1.6128 -1.747221,0 -2.856034,1.5792 -1.108814,1.5457 -1.108814,4.0321 0,2.5872 1.075213,4.1664 1.108814,1.5793 2.889635,1.5793 1.747222,0 2.856035,-1.5793 1.108814,-1.5792 1.108814,-4.0656 0,-2.52 -1.108814,-4.0993 z"
         style=""
         id="path4285" />
      <path
         d="m -37.269116,1016.3289 q -1.344016,-3.9313 -5.846471,-3.9313 -3.192039,0 -5.040062,2.2513 -1.814422,2.2512 -1.814422,6.216 0,3.7633 1.948824,6.1825 1.982424,2.4192 5.040061,2.4192 0.470406,0 1.075214,-0.1008 0.638407,-0.1344 1.512018,-0.4704 0.873611,-0.3696 1.61282,-0.9408 0.739209,-0.5712 1.310416,-1.5792 0.571207,-1.0416 0.705608,-2.352 l -5.577668,0 0,-4.2001 9.81132,0 0,13.2386 -3.024037,0 -0.604807,-3.2256 q -1.411217,2.0496 -3.158439,2.9904 -1.747221,0.9408 -4.233651,0.9408 -4.972861,0 -8.232101,-3.6288 -3.225639,-3.6289 -3.225639,-9.2066 0,-5.712 3.29284,-9.2737 3.29284,-3.5616 8.568104,-3.5616 4.435255,0 7.29129,2.2176 2.856034,2.2176 3.32644,6.0145 l -4.737658,0 z"
         style=""
         id="path4287" />
      <path
         d="m -22.769487,1008.5672 0,20.2946 11.726543,0 0,4.2001 -16.766605,0 0,-24.4947 5.040062,0 z"
         style=""
         id="path4289" />
      <path
         d="m 94.83982,1016.0265 -4.704057,0 q -0.268804,-3.8305 -5.140863,-3.8305 -1.948824,0 -3.091238,0.84 -1.142414,0.8065 -1.142414,2.1841 0,1.344 0.974412,2.016 0.974412,0.6384 3.662445,1.176 l 3.830447,0.7392 q 3.393641,0.672 4.93926,2.2848 1.545619,1.5793 1.545619,4.4689 0,3.7296 -2.654433,5.8465 -2.654432,2.0832 -7.39209,2.0832 -4.704057,0 -7.324889,-2.0832 -2.587232,-2.0833 -2.822435,-6.0145 l 4.90566,0 q 0.134402,1.9824 1.545619,3.024 1.411217,1.0416 3.964848,1.0416 2.284828,0 3.595244,-0.8736 1.344017,-0.8736 1.344017,-2.4192 0,-1.4784 -1.041613,-2.2848 -1.041613,-0.8064 -3.561644,-1.2768 l -3.427241,-0.672 q -3.729646,-0.7057 -5.308865,-2.2177 -1.57922,-1.512 -1.57922,-4.368 0,-3.5953 2.41923,-5.5441 2.45283,-1.9824 6.854484,-1.9824 1.276815,0 2.45283,0.168 1.209614,0.168 2.553631,0.7056 1.344016,0.504 2.318428,1.344 0.974412,0.8064 1.61282,2.2848 0.672008,1.4449 0.672008,3.3601 z"
         style=""
         id="path4291" />
      <path
         d="m 107.42791,1015.2873 0,3.1248 -2.62084,0 0,9.8785 q 0,1.2096 0.30241,1.6129 0.3024,0.3696 1.24321,0.3696 0.36961,0 1.07522,-0.1008 l 0,3.2928 q -1.14242,0.3696 -2.72164,0.3696 -4.60325,0 -4.60325,-4.2673 l 0,-11.1553 -2.318432,0 0,-3.1248 2.318432,0 0,-4.8721 4.70405,0 0,4.8721 2.62084,0 z"
         style=""
         id="path4293" />
      <path
         d="m 115.28672,1033.8347 q -2.48643,0 -3.99845,-1.4784 -1.51202,-1.512 -1.51202,-3.9649 0,-4.8048 5.34247,-5.712 l 1.88162,-0.336 q 0.0672,0 0.67201,-0.067 0.60481,-0.1008 0.77281,-0.1344 0.168,-0.067 0.63841,-0.168 0.504,-0.1008 0.7056,-0.2352 0.20161,-0.1345 0.47041,-0.3361 0.3024,-0.2352 0.40321,-0.504 0.1008,-0.3024 0.1008,-0.672 0,-1.8144 -2.72164,-1.8144 -1.74722,0 -2.45283,0.5376 -0.70561,0.5376 -0.87361,1.9488 l -4.53605,0 q 0.4368,-6.2832 7.76169,-6.2832 7.42569,0 7.42569,5.5776 l 0,10.0802 q 0,1.2432 1.07522,2.2176 l 0,0.5712 -5.10727,0 q -0.5376,-0.672 -0.5376,-1.8144 -2.48643,2.5872 -5.51047,2.5872 z m 5.47687,-8.0641 0,-1.2768 q -0.63841,0.3024 -1.98243,0.5712 l -1.61282,0.3024 q -1.47842,0.3024 -2.08322,0.8736 -0.60481,0.5712 -0.60481,1.6128 0,1.008 0.67201,1.6128 0.70561,0.5713 1.88162,0.5713 1.78082,0 2.75523,-1.1089 0.97442,-1.1088 0.97442,-3.1584 z"
         style=""
         id="path4295" />
      <path
         d="m 137.81264,1015.2873 0,3.1248 -2.62083,0 0,9.8785 q 0,1.2096 0.3024,1.6129 0.30241,0.3696 1.24322,0.3696 0.3696,0 1.07521,-0.1008 l 0,3.2928 q -1.14241,0.3696 -2.72163,0.3696 -4.60326,0 -4.60326,-4.2673 l 0,-11.1553 -2.31843,0 0,-3.1248 2.31843,0 0,-4.8721 4.70406,0 0,4.8721 2.62083,0 z"
         style=""
         id="path4297" />
      <path
         d="m 144.42825,1027.7866 q 0.23521,1.1424 0.94082,1.7472 0.73921,0.6049 2.75523,0.6049 1.64642,0 2.55363,-0.4705 0.94081,-0.4704 0.94081,-1.3104 0,-0.5376 -0.3696,-0.8736 -0.33601,-0.336 -1.20962,-0.6048 l -5.61127,-1.7472 q -0.0336,0 -0.4032,-0.1008 -0.3696,-0.1344 -0.53761,-0.2016 -0.1344,-0.067 -0.5376,-0.2016 -0.40321,-0.168 -0.63841,-0.336 -0.2016,-0.168 -0.53761,-0.4032 -0.336,-0.2688 -0.5376,-0.5712 -0.16801,-0.3024 -0.36961,-0.672 -0.2016,-0.4032 -0.3024,-0.9072 -0.1008,-0.5041 -0.1008,-1.0753 0,-2.7888 1.98242,-4.4016 2.01603,-1.6464 5.47687,-1.6464 3.66244,0 5.74567,1.6464 2.08322,1.6128 2.15042,4.5024 l -4.53605,0 q -0.0336,-2.4528 -3.39364,-2.4528 -1.24322,0 -1.98243,0.4704 -0.73921,0.4368 -0.73921,1.2096 0,0.5376 0.33601,0.84 0.336,0.2688 1.31041,0.5712 l 5.94728,1.7137 q 3.56164,1.0416 3.56164,4.5696 0,1.0416 -0.3696,2.0496 -0.36961,0.9745 -1.20962,1.9489 -0.80641,0.9744 -2.45283,1.5456 -1.64642,0.6048 -3.89765,0.6048 -8.3665,0 -8.5681,-6.0481 l 4.60325,0 z"
         style=""
         id="path4299" />
    </g>
    <g
       id="g4186"
       transform="translate(0.25,2.25)">
      <path
         sodipodi:nodetypes="cccc"
         inkscape:connector-curvature="0"
         id="path4140"
         d="m 11.976187,1028.3514 11.998078,-11.892 15.9806,7.8961 12.035323,-15.9357"
         style="fill:none;fill-rule:evenodd;stroke:#ffffff;stroke-width:3;stroke-linecap:round;stroke-linejoin:round;stroke-miterlimit:4;stroke-dasharray:none;stroke-opacity:1" />
      <circle
         r="3.8586957"
         cy="1028.3511"
         cx="12.006836"
         id="path4178"
         style="opacity:1;fill:#3284ff;fill-opacity:1;stroke:#ffffff;stroke-width:2.28260851;stroke-linecap:round;stroke-linejoin:round;stroke-miterlimit:4;stroke-dasharray:none;stroke-opacity:1" />
      <circle
         r="3.8586957"
         style="opacity:1;fill:#3284ff;fill-opacity:1;stroke:#ffffff;stroke-width:2.28260851;stroke-linecap:round;stroke-linejoin:round;stroke-miterlimit:4;stroke-dasharray:none;stroke-opacity:1"
         id="circle4180"
         cx="23.998276"
         cy="1016.3214" />
      <circle
         r="3.8586957"
         cy="1024.3901"
         cx="40.050255"
         id="circle4182"
         style="opacity:1;fill:#3284ff;fill-opacity:1;stroke:#ffffff;stroke-width:2.28260851;stroke-linecap:round;stroke-linejoin:round;stroke-miterlimit:4;stroke-dasharray:none;stroke-opacity:1" />
      <circle
         r="3.8586957"
         style="opacity:1;fill:#3284ff;fill-opacity:1;stroke:#ffffff;stroke-width:2.28260851;stroke-linecap:round;stroke-linejoin:round;stroke-miterlimit:4;stroke-dasharray:none;stroke-opacity:1"
         id="circle4184"
         cx="52.077427"
         cy="1008.3845" />
    </g>
  </g>
</svg>
